<mxfile host="app.diagrams.net" agent="Mozilla/5.0 (Windows NT 10.0; Win64; x64) AppleWebKit/537.36 (KHTML, like Gecko) Chrome/135.0.0.0 Safari/537.36" version="26.2.12">
  <diagram name="Page-1" id="FRIsxc-Axqf06AhvtRIk">
    <mxGraphModel dx="2938" dy="2222" grid="1" gridSize="10" guides="1" tooltips="1" connect="1" arrows="1" fold="1" page="1" pageScale="1" pageWidth="850" pageHeight="1100" math="0" shadow="0">
      <root>
        <mxCell id="0" />
        <mxCell id="1" parent="0" />
        <mxCell id="fayW_9n5xT9S6tsM_T_6-1" value="Patient" style="swimlane;whiteSpace=wrap;html=1;" parent="1" vertex="1">
          <mxGeometry x="860" y="-710" width="230" height="1010" as="geometry" />
        </mxCell>
        <mxCell id="fayW_9n5xT9S6tsM_T_6-2" value="&lt;b&gt;Ic_Number&lt;/b&gt; (Document)" style="text;html=1;align=center;verticalAlign=middle;resizable=0;points=[];autosize=1;strokeColor=none;fillColor=none;" parent="fayW_9n5xT9S6tsM_T_6-1" vertex="1">
          <mxGeometry x="10" y="30" width="150" height="30" as="geometry" />
        </mxCell>
        <mxCell id="fayW_9n5xT9S6tsM_T_6-3" value="name&lt;div&gt;dob&lt;/div&gt;&lt;div&gt;phone&lt;/div&gt;&lt;div&gt;email&amp;nbsp;&lt;/div&gt;&lt;div&gt;password&lt;/div&gt;&lt;div&gt;address&lt;/div&gt;&lt;div&gt;emergency_contact&lt;/div&gt;&lt;div&gt;rideRequests&lt;/div&gt;&lt;div&gt;linkedFamily[]&lt;/div&gt;" style="text;html=1;align=center;verticalAlign=middle;resizable=0;points=[];autosize=1;strokeColor=none;fillColor=none;" parent="fayW_9n5xT9S6tsM_T_6-1" vertex="1">
          <mxGeometry x="20" y="55" width="130" height="140" as="geometry" />
        </mxCell>
        <mxCell id="fayW_9n5xT9S6tsM_T_6-30" value="" style="swimlane;startSize=0;" parent="fayW_9n5xT9S6tsM_T_6-1" vertex="1">
          <mxGeometry x="20" y="220" width="160" height="170" as="geometry" />
        </mxCell>
        <mxCell id="fayW_9n5xT9S6tsM_T_6-5" value="&lt;font&gt;appointment_id&amp;nbsp;&lt;/font&gt;&lt;div&gt;&lt;font&gt;illness&lt;br&gt;&lt;/font&gt;&lt;div&gt;&lt;font&gt;clinic_name&lt;/font&gt;&lt;/div&gt;&lt;div&gt;&lt;font&gt;clinic_address&lt;/font&gt;&lt;/div&gt;&lt;div&gt;&lt;font&gt;date&lt;/font&gt;&lt;/div&gt;&lt;div&gt;&lt;font&gt;status&lt;/font&gt;&lt;/div&gt;&lt;div&gt;&lt;font&gt;type&lt;/font&gt;&lt;/div&gt;&lt;div&gt;&lt;font&gt;bookedBy&lt;/font&gt;&lt;/div&gt;&lt;/div&gt;" style="text;html=1;align=center;verticalAlign=middle;resizable=0;points=[];autosize=1;strokeColor=none;fillColor=none;" parent="fayW_9n5xT9S6tsM_T_6-30" vertex="1">
          <mxGeometry x="20" y="40" width="110" height="130" as="geometry" />
        </mxCell>
        <mxCell id="fayW_9n5xT9S6tsM_T_6-4" value="&lt;b&gt;Appointments &lt;/b&gt;(Subdocument&lt;b&gt;)&lt;/b&gt;" style="text;html=1;align=center;verticalAlign=middle;whiteSpace=wrap;rounded=0;" parent="fayW_9n5xT9S6tsM_T_6-30" vertex="1">
          <mxGeometry x="45" y="10" width="60" height="30" as="geometry" />
        </mxCell>
        <mxCell id="fayW_9n5xT9S6tsM_T_6-31" value="" style="swimlane;startSize=0;" parent="fayW_9n5xT9S6tsM_T_6-1" vertex="1">
          <mxGeometry x="20" y="430" width="160" height="160" as="geometry" />
        </mxCell>
        <mxCell id="fayW_9n5xT9S6tsM_T_6-6" value="&lt;b&gt;Medication&lt;/b&gt;s&amp;nbsp;&lt;div&gt;(Subdocument)&lt;/div&gt;" style="text;html=1;align=center;verticalAlign=middle;whiteSpace=wrap;rounded=0;" parent="fayW_9n5xT9S6tsM_T_6-31" vertex="1">
          <mxGeometry x="45" width="60" height="30" as="geometry" />
        </mxCell>
        <mxCell id="fayW_9n5xT9S6tsM_T_6-7" value="name&lt;div&gt;dosage&lt;/div&gt;&lt;div&gt;prescribedBy&amp;nbsp;&lt;/div&gt;&lt;div&gt;startDate&lt;/div&gt;" style="text;html=1;align=center;verticalAlign=middle;resizable=0;points=[];autosize=1;strokeColor=none;fillColor=none;" parent="fayW_9n5xT9S6tsM_T_6-31" vertex="1">
          <mxGeometry x="25" y="40" width="100" height="70" as="geometry" />
        </mxCell>
        <mxCell id="fayW_9n5xT9S6tsM_T_6-33" value="" style="swimlane;startSize=0;" parent="fayW_9n5xT9S6tsM_T_6-1" vertex="1">
          <mxGeometry x="20" y="630" width="160" height="150" as="geometry" />
        </mxCell>
        <mxCell id="fayW_9n5xT9S6tsM_T_6-21" value="ride_date&amp;nbsp;&amp;nbsp;&lt;div&gt;driver_name&lt;br&gt;&lt;div&gt;scheduled_time&lt;br&gt;&lt;div&gt;clinic_id&lt;/div&gt;&lt;div&gt;appointment_id&lt;br&gt;&lt;div&gt;&lt;div&gt;&lt;br&gt;&lt;/div&gt;&lt;/div&gt;&lt;/div&gt;&lt;/div&gt;&lt;/div&gt;" style="text;html=1;align=center;verticalAlign=middle;resizable=0;points=[];autosize=1;strokeColor=none;fillColor=none;" parent="fayW_9n5xT9S6tsM_T_6-33" vertex="1">
          <mxGeometry x="15" y="35" width="110" height="100" as="geometry" />
        </mxCell>
        <mxCell id="fayW_9n5xT9S6tsM_T_6-20" value="&lt;b&gt;Rides&amp;nbsp;&lt;/b&gt;&lt;div&gt;(Subdocument)&lt;b&gt;&amp;nbsp;&lt;/b&gt;&lt;/div&gt;" style="text;html=1;align=center;verticalAlign=middle;resizable=0;points=[];autosize=1;strokeColor=none;fillColor=none;" parent="fayW_9n5xT9S6tsM_T_6-33" vertex="1">
          <mxGeometry x="15" width="110" height="40" as="geometry" />
        </mxCell>
        <mxCell id="25rnuTsXZbhbubzsYssv-1" value="" style="swimlane;startSize=0;" parent="fayW_9n5xT9S6tsM_T_6-1" vertex="1">
          <mxGeometry x="20" y="810" width="150" height="160" as="geometry" />
        </mxCell>
        <mxCell id="25rnuTsXZbhbubzsYssv-2" value="SavedClinics&lt;div&gt;&lt;br&gt;&lt;/div&gt;" style="text;html=1;align=center;verticalAlign=middle;resizable=0;points=[];autosize=1;strokeColor=none;fillColor=none;" parent="25rnuTsXZbhbubzsYssv-1" vertex="1">
          <mxGeometry x="20" y="5" width="90" height="40" as="geometry" />
        </mxCell>
        <mxCell id="25rnuTsXZbhbubzsYssv-3" value="clinic_id&lt;div&gt;clinic_name&lt;/div&gt;&lt;div&gt;clinic_address&lt;/div&gt;&lt;div&gt;&lt;br&gt;&lt;/div&gt;" style="text;html=1;align=center;verticalAlign=middle;resizable=0;points=[];autosize=1;strokeColor=none;fillColor=none;" parent="25rnuTsXZbhbubzsYssv-1" vertex="1">
          <mxGeometry x="10" y="45" width="100" height="70" as="geometry" />
        </mxCell>
        <mxCell id="fayW_9n5xT9S6tsM_T_6-8" value="FamilyMembers" style="swimlane;whiteSpace=wrap;html=1;" parent="1" vertex="1">
          <mxGeometry x="1190" y="-730" width="220" height="378" as="geometry" />
        </mxCell>
        <mxCell id="fayW_9n5xT9S6tsM_T_6-42" value="" style="group" parent="fayW_9n5xT9S6tsM_T_6-8" vertex="1" connectable="0">
          <mxGeometry x="15" y="40" width="200" height="338" as="geometry" />
        </mxCell>
        <mxCell id="fayW_9n5xT9S6tsM_T_6-9" value="&lt;b&gt;Ic_Number (Document)&lt;/b&gt;" style="text;html=1;align=center;verticalAlign=middle;resizable=0;points=[];autosize=1;strokeColor=none;fillColor=none;" parent="fayW_9n5xT9S6tsM_T_6-42" vertex="1">
          <mxGeometry width="160" height="30" as="geometry" />
        </mxCell>
        <mxCell id="fayW_9n5xT9S6tsM_T_6-10" value="name&lt;div&gt;phone&amp;nbsp;&lt;/div&gt;&lt;div&gt;password&lt;/div&gt;&lt;div&gt;email&lt;/div&gt;&lt;div&gt;linkedUsers[]&lt;/div&gt;&lt;div&gt;canViewMedications&lt;/div&gt;&lt;div&gt;appointmentManaged&lt;/div&gt;" style="text;html=1;align=center;verticalAlign=middle;resizable=0;points=[];autosize=1;strokeColor=none;fillColor=none;" parent="fayW_9n5xT9S6tsM_T_6-42" vertex="1">
          <mxGeometry x="10" y="15" width="140" height="110" as="geometry" />
        </mxCell>
        <mxCell id="fayW_9n5xT9S6tsM_T_6-23" value="Doctors" style="swimlane;whiteSpace=wrap;html=1;" parent="1" vertex="1">
          <mxGeometry x="210" y="-100" width="220" height="380" as="geometry" />
        </mxCell>
        <mxCell id="fayW_9n5xT9S6tsM_T_6-24" value="&lt;b&gt;Emp_id (Document)&lt;/b&gt;&amp;nbsp;&lt;div&gt;name&lt;/div&gt;&lt;div&gt;specialization&lt;/div&gt;&lt;div&gt;contact&lt;/div&gt;&lt;div&gt;clinic_id&lt;/div&gt;" style="text;html=1;align=center;verticalAlign=middle;resizable=0;points=[];autosize=1;strokeColor=none;fillColor=none;" parent="fayW_9n5xT9S6tsM_T_6-23" vertex="1">
          <mxGeometry x="40" y="30" width="140" height="90" as="geometry" />
        </mxCell>
        <mxCell id="fayW_9n5xT9S6tsM_T_6-34" value="" style="swimlane;startSize=0;" parent="fayW_9n5xT9S6tsM_T_6-23" vertex="1">
          <mxGeometry x="20" y="140" width="180" height="190" as="geometry" />
        </mxCell>
        <mxCell id="fayW_9n5xT9S6tsM_T_6-35" value="&lt;b&gt;Appointments&amp;nbsp;&lt;/b&gt;&lt;div&gt;(subdocument)&amp;nbsp;&lt;div&gt;appointment_id&amp;nbsp;&lt;/div&gt;&lt;div&gt;patient_id&lt;/div&gt;&lt;div&gt;timestamp&lt;/div&gt;&lt;div&gt;appointment&lt;/div&gt;&lt;/div&gt;&lt;div&gt;prescribed_medications[]&lt;/div&gt;" style="text;html=1;align=center;verticalAlign=middle;resizable=0;points=[];autosize=1;strokeColor=none;fillColor=none;" parent="fayW_9n5xT9S6tsM_T_6-34" vertex="1">
          <mxGeometry x="10" y="23" width="160" height="110" as="geometry" />
        </mxCell>
        <mxCell id="fayW_9n5xT9S6tsM_T_6-40" value="Staff" style="swimlane;whiteSpace=wrap;html=1;" parent="1" vertex="1">
          <mxGeometry x="630" y="-140" width="200" height="200" as="geometry" />
        </mxCell>
        <mxCell id="fayW_9n5xT9S6tsM_T_6-41" value="&lt;b&gt;Staff_id (Document)&lt;/b&gt;&amp;nbsp;&lt;div&gt;name&lt;/div&gt;&lt;div&gt;contact&lt;/div&gt;&lt;div&gt;email&lt;/div&gt;&lt;div&gt;password&lt;/div&gt;" style="text;html=1;align=center;verticalAlign=middle;resizable=0;points=[];autosize=1;strokeColor=none;fillColor=none;" parent="fayW_9n5xT9S6tsM_T_6-40" vertex="1">
          <mxGeometry x="30" y="30" width="140" height="90" as="geometry" />
        </mxCell>
        <mxCell id="sSW6P_gmqPF-mmkY9tqZ-1" value="Clinic" style="swimlane;whiteSpace=wrap;html=1;" parent="1" vertex="1">
          <mxGeometry x="180" y="-700" width="280" height="490" as="geometry" />
        </mxCell>
        <mxCell id="sSW6P_gmqPF-mmkY9tqZ-2" value="ClinicId&amp;nbsp;&lt;div&gt;ClinicName&lt;/div&gt;&lt;div&gt;ClinicAddress&lt;/div&gt;" style="text;html=1;align=center;verticalAlign=middle;resizable=0;points=[];autosize=1;strokeColor=none;fillColor=none;" parent="sSW6P_gmqPF-mmkY9tqZ-1" vertex="1">
          <mxGeometry x="50" y="40" width="100" height="60" as="geometry" />
        </mxCell>
        <mxCell id="uAMzcsi73Wz8sigbEJ29-2" value="Maybe appointments should be a separate document?&amp;nbsp;&lt;br&gt;What if the doctor wants to view all appointments. Or the staff would like&lt;div&gt;to view all the appointments. If the staff want to view appointments then it has to go through&amp;nbsp;&lt;/div&gt;&lt;div&gt;every doctors to retrieve all the appointments... Maybe create a separate table for now...&lt;/div&gt;" style="text;html=1;align=center;verticalAlign=middle;resizable=0;points=[];autosize=1;strokeColor=none;fillColor=none;" parent="1" vertex="1">
          <mxGeometry x="480" y="470" width="510" height="70" as="geometry" />
        </mxCell>
        <mxCell id="uAMzcsi73Wz8sigbEJ29-1" value="I was thinking that family members could share the data with the elderly to reduce duplication of data" style="text;html=1;align=center;verticalAlign=middle;whiteSpace=wrap;rounded=0;" parent="1" vertex="1">
          <mxGeometry x="650" y="370" width="160" height="70" as="geometry" />
        </mxCell>
        <mxCell id="00DuobmsYJgcdZ9FmfCe-6" value="Slots" style="swimlane;whiteSpace=wrap;html=1;" parent="1" vertex="1">
          <mxGeometry x="-220" y="-140" width="220" height="230" as="geometry" />
        </mxCell>
        <mxCell id="00DuobmsYJgcdZ9FmfCe-7" value="" style="group" parent="00DuobmsYJgcdZ9FmfCe-6" vertex="1" connectable="0">
          <mxGeometry x="10" y="80" width="200" height="338" as="geometry" />
        </mxCell>
        <mxCell id="00DuobmsYJgcdZ9FmfCe-8" value="slot_id&lt;div&gt;timeSlot&lt;/div&gt;&lt;div&gt;managedBy&amp;nbsp;&lt;/div&gt;&lt;div&gt;appointment_id&lt;/div&gt;&lt;div&gt;&lt;br&gt;&lt;/div&gt;" style="text;html=1;align=center;verticalAlign=middle;resizable=0;points=[];autosize=1;strokeColor=none;fillColor=none;" parent="00DuobmsYJgcdZ9FmfCe-7" vertex="1">
          <mxGeometry x="40" y="-5" width="110" height="90" as="geometry" />
        </mxCell>
        <mxCell id="00DuobmsYJgcdZ9FmfCe-10" value="" style="endArrow=classic;html=1;rounded=0;entryX=0.545;entryY=0;entryDx=0;entryDy=0;entryPerimeter=0;exitX=0.5;exitY=1;exitDx=0;exitDy=0;" parent="1" source="sSW6P_gmqPF-mmkY9tqZ-1" target="00DuobmsYJgcdZ9FmfCe-6" edge="1">
          <mxGeometry width="50" height="50" relative="1" as="geometry">
            <mxPoint x="300" y="-230" as="sourcePoint" />
            <mxPoint x="10" y="-220" as="targetPoint" />
          </mxGeometry>
        </mxCell>
        <mxCell id="00DuobmsYJgcdZ9FmfCe-12" value="" style="endArrow=classic;html=1;rounded=0;exitX=0.5;exitY=1;exitDx=0;exitDy=0;entryX=0.5;entryY=0;entryDx=0;entryDy=0;" parent="1" source="sSW6P_gmqPF-mmkY9tqZ-1" target="fayW_9n5xT9S6tsM_T_6-23" edge="1">
          <mxGeometry width="50" height="50" relative="1" as="geometry">
            <mxPoint x="410" y="-150" as="sourcePoint" />
            <mxPoint x="460" y="-200" as="targetPoint" />
          </mxGeometry>
        </mxCell>
        <mxCell id="00DuobmsYJgcdZ9FmfCe-13" value="" style="endArrow=classic;html=1;rounded=0;exitX=0.5;exitY=1;exitDx=0;exitDy=0;entryX=0.5;entryY=0;entryDx=0;entryDy=0;" parent="1" source="sSW6P_gmqPF-mmkY9tqZ-1" target="fayW_9n5xT9S6tsM_T_6-40" edge="1">
          <mxGeometry width="50" height="50" relative="1" as="geometry">
            <mxPoint x="590" y="-170" as="sourcePoint" />
            <mxPoint x="640" y="-220" as="targetPoint" />
          </mxGeometry>
        </mxCell>
        <mxCell id="00DuobmsYJgcdZ9FmfCe-16" value="" style="endArrow=none;dashed=1;html=1;dashPattern=1 3;strokeWidth=2;rounded=0;exitX=1;exitY=0.5;exitDx=0;exitDy=0;entryX=0;entryY=0.25;entryDx=0;entryDy=0;" parent="1" source="sSW6P_gmqPF-mmkY9tqZ-1" target="fayW_9n5xT9S6tsM_T_6-1" edge="1">
          <mxGeometry width="50" height="50" relative="1" as="geometry">
            <mxPoint x="520" y="-480" as="sourcePoint" />
            <mxPoint x="860" y="-417" as="targetPoint" />
          </mxGeometry>
        </mxCell>
        <mxCell id="00DuobmsYJgcdZ9FmfCe-17" value="Has" style="text;html=1;align=center;verticalAlign=middle;resizable=0;points=[];autosize=1;strokeColor=none;fillColor=none;" parent="1" vertex="1">
          <mxGeometry x="630" y="-510" width="40" height="30" as="geometry" />
        </mxCell>
        <mxCell id="00DuobmsYJgcdZ9FmfCe-18" value="Composition" style="text;html=1;align=center;verticalAlign=middle;whiteSpace=wrap;rounded=0;" parent="1" vertex="1">
          <mxGeometry x="-20" y="-200" width="60" height="30" as="geometry" />
        </mxCell>
        <mxCell id="00DuobmsYJgcdZ9FmfCe-20" value="Composition" style="text;html=1;align=center;verticalAlign=middle;whiteSpace=wrap;rounded=0;" parent="1" vertex="1">
          <mxGeometry x="330" y="-170" width="60" height="30" as="geometry" />
        </mxCell>
        <mxCell id="00DuobmsYJgcdZ9FmfCe-21" value="Composition" style="text;html=1;align=center;verticalAlign=middle;whiteSpace=wrap;rounded=0;" parent="1" vertex="1">
          <mxGeometry x="580" y="-200" width="60" height="30" as="geometry" />
        </mxCell>
        <mxCell id="00DuobmsYJgcdZ9FmfCe-22" value="" style="endArrow=none;dashed=1;html=1;dashPattern=1 3;strokeWidth=2;rounded=0;exitX=1;exitY=0.25;exitDx=0;exitDy=0;" parent="1" source="fayW_9n5xT9S6tsM_T_6-1" edge="1">
          <mxGeometry width="50" height="50" relative="1" as="geometry">
            <mxPoint x="1130" y="-480" as="sourcePoint" />
            <mxPoint x="1190" y="-457" as="targetPoint" />
          </mxGeometry>
        </mxCell>
        <mxCell id="00DuobmsYJgcdZ9FmfCe-23" value="Has" style="text;html=1;align=center;verticalAlign=middle;resizable=0;points=[];autosize=1;strokeColor=none;fillColor=none;" parent="1" vertex="1">
          <mxGeometry x="1110" y="-502" width="40" height="30" as="geometry" />
        </mxCell>
        <mxCell id="uAMzcsi73Wz8sigbEJ29-3" value="Appointments" style="swimlane;whiteSpace=wrap;html=1;" parent="1" vertex="1">
          <mxGeometry x="550" y="-970" width="190" height="120" as="geometry" />
        </mxCell>
        <mxCell id="uAMzcsi73Wz8sigbEJ29-4" value="AppointmentId (Document)&lt;div&gt;&lt;span style=&quot;background-color: transparent; color: light-dark(rgb(0, 0, 0), rgb(255, 255, 255));&quot;&gt;doctor_id&lt;/span&gt;&lt;/div&gt;&lt;div&gt;&lt;span style=&quot;background-color: transparent; color: light-dark(rgb(0, 0, 0), rgb(255, 255, 255));&quot;&gt;patient_id&lt;/span&gt;&lt;/div&gt;&lt;div&gt;&lt;span style=&quot;background-color: transparent; color: light-dark(rgb(0, 0, 0), rgb(255, 255, 255));&quot;&gt;&amp;nbsp; timestamp&lt;/span&gt;&lt;/div&gt;&lt;div&gt;&lt;div&gt;&lt;div&gt;&lt;br&gt;&lt;/div&gt;&lt;/div&gt;&lt;/div&gt;" style="text;html=1;align=center;verticalAlign=middle;resizable=0;points=[];autosize=1;strokeColor=none;fillColor=none;" parent="uAMzcsi73Wz8sigbEJ29-3" vertex="1">
          <mxGeometry x="15" y="40" width="170" height="90" as="geometry" />
        </mxCell>
        <mxCell id="00DuobmsYJgcdZ9FmfCe-24" value="" style="endArrow=none;dashed=1;html=1;dashPattern=1 3;strokeWidth=2;rounded=0;exitX=1;exitY=0.5;exitDx=0;exitDy=0;entryX=0.5;entryY=0;entryDx=0;entryDy=0;" parent="1" source="uAMzcsi73Wz8sigbEJ29-3" target="fayW_9n5xT9S6tsM_T_6-1" edge="1">
          <mxGeometry width="50" height="50" relative="1" as="geometry">
            <mxPoint x="890" y="-770" as="sourcePoint" />
            <mxPoint x="940" y="-820" as="targetPoint" />
          </mxGeometry>
        </mxCell>
        <mxCell id="00DuobmsYJgcdZ9FmfCe-25" value="" style="endArrow=classic;html=1;rounded=0;exitX=0.5;exitY=0;exitDx=0;exitDy=0;entryX=0;entryY=0.5;entryDx=0;entryDy=0;" parent="1" source="sSW6P_gmqPF-mmkY9tqZ-1" target="uAMzcsi73Wz8sigbEJ29-3" edge="1">
          <mxGeometry width="50" height="50" relative="1" as="geometry">
            <mxPoint x="300" y="-740" as="sourcePoint" />
            <mxPoint x="350" y="-790" as="targetPoint" />
          </mxGeometry>
        </mxCell>
        <mxCell id="00DuobmsYJgcdZ9FmfCe-26" value="Has" style="text;html=1;align=center;verticalAlign=middle;resizable=0;points=[];autosize=1;strokeColor=none;fillColor=none;" parent="1" vertex="1">
          <mxGeometry x="920" y="-872" width="40" height="30" as="geometry" />
        </mxCell>
        <mxCell id="00DuobmsYJgcdZ9FmfCe-27" value="Composition" style="text;html=1;align=center;verticalAlign=middle;resizable=0;points=[];autosize=1;strokeColor=none;fillColor=none;" parent="1" vertex="1">
          <mxGeometry x="300" y="-842" width="90" height="30" as="geometry" />
        </mxCell>
      </root>
    </mxGraphModel>
  </diagram>
</mxfile>
